<?xml version="1.0" standalone="no"?>
<!DOCTYPE svg PUBLIC "-//W3C//DTD SVG 20010904//EN"
 "http://www.w3.org/TR/2001/REC-SVG-20010904/DTD/svg10.dtd">
<svg version="1.0" xmlns="http://www.w3.org/2000/svg"
 width="500.000000pt" height="500.000000pt" viewBox="0 0 500.000000 500.000000"
 preserveAspectRatio="xMidYMid meet">
<metadata>
Created by potrace 1.11, written by Peter Selinger 2001-2013
</metadata>
<g transform="translate(0.000000,500.000000) scale(0.100000,-0.100000)"
fill="#000000" stroke="none">
<path d="M1098 3685 c-2 -2 -23 -6 -48 -10 -331 -47 -671 -282 -841 -580 -47
-82 -89 -171 -89 -187 0 -8 -4 -18 -9 -24 -15 -16 -50 -176 -60 -273 -34 -349
94 -694 353 -955 156 -158 344 -266 551 -319 104 -26 381 -33 499 -11 269 49
535 215 712 444 135 175 217 371 249 595 7 46 7 238 1 275 -3 14 -7 41 -10 60
-9 60 -55 208 -86 276 -165 364 -507 632 -895 699 -41 7 -321 16 -327 10z
m315 -221 c211 -31 455 -183 603 -376 81 -104 160 -277 179 -388 3 -19 8 -43
11 -53 10 -33 6 -241 -6 -312 -39 -236 -171 -452 -380 -620 -78 -62 -279 -155
-365 -168 -34 -6 -36 -5 -15 4 219 91 353 229 420 429 30 91 35 249 10 346
-50 196 -179 352 -361 439 -429 203 -923 -107 -927 -582 -1 -125 17 -204 70
-310 66 -133 183 -242 327 -305 75 -33 38 -30 -64 5 -399 135 -671 526 -659
947 3 117 6 141 28 226 108 417 477 713 916 737 42 2 123 -5 213 -19z m-45
-936 c325 -121 325 -584 0 -710 -243 -94 -517 90 -519 347 -2 272 264 458 519
363z m39 -994 c-3 -3 -12 -4 -19 -1 -8 3 -5 6 6 6 11 1 17 -2 13 -5z"/>
<path d="M3590 3676 c-239 -41 -429 -131 -603 -286 -176 -156 -300 -351 -362
-565 -25 -87 -30 -109 -40 -185 -6 -45 -7 -237 -1 -270 3 -14 7 -43 11 -65 9
-64 44 -180 77 -258 82 -194 206 -355 373 -488 166 -131 308 -197 513 -236 47
-10 342 -10 403 -1 447 66 853 452 962 913 64 270 33 533 -94 788 -170 343
-496 586 -873 650 -100 17 -272 18 -366 3z m262 -200 c178 -12 348 -78 506
-198 204 -155 331 -363 376 -615 13 -76 14 -265 1 -328 -66 -323 -256 -574
-542 -715 -70 -34 -243 -94 -243 -84 0 2 33 19 74 38 139 64 231 144 303 265
66 110 87 186 88 316 0 136 -7 177 -44 265 -122 292 -433 458 -740 394 -455
-95 -669 -632 -403 -1016 42 -60 69 -89 133 -140 56 -45 175 -108 203 -108 8
0 17 -4 21 -9 7 -12 -123 23 -190 52 -409 173 -654 586 -603 1020 54 457 427
822 883 863 39 4 72 8 73 10 2 1 9 1 15 -1 7 -2 47 -6 89 -9z m18 -938 c220
-57 337 -310 242 -520 -109 -241 -424 -300 -615 -116 -55 54 -81 97 -102 172
-56 194 69 413 265 464 84 21 126 21 210 0z m63 -1005 c-7 -2 -19 -2 -25 0 -7
3 -2 5 12 5 14 0 19 -2 13 -5z"/>
</g>
</svg>
